<?xml version="1.0" encoding="utf-8"?>
<!-- Generator: Adobe Illustrator 24.1.2, SVG Export Plug-In . SVG Version: 6.00 Build 0)  -->
<svg version="1.1" id="Layer_1" xmlns="http://www.w3.org/2000/svg" xmlns:xlink="http://www.w3.org/1999/xlink" x="0px" y="0px"
	 viewBox="0 0 818.18 818.18" style="enable-background:new 0 0 818.18 818.18;" xml:space="preserve">
<style type="text/css">
	.st0{fill:#DADADA;}
	.st1{fill:#9F9F9F;}
	.st2{fill:#F2F2F2;}
	.st3{fill:url(#SVGID_1_);}
	.st4{fill:#939393;}
	.st5{fill:#E8E8E8;}
</style>
<g>
	<rect y="0" class="st0" width="818.18" height="818.18"/>
	<g>
		<path class="st1" d="M186,381.84c0.48-0.41,1-0.88,1.57-1.41C187.57,380.43,186.97,380.88,186,381.84z"/>
		<path class="st1" d="M629.5,368.64c-11-62.71-59.44-94.53-61.88-130.65l12.41,25.53c0,0-12.43-166.39-100.39-164.3
			c-25.68,0.61-30.55,11-30.55,11S407.53,69.89,358.65,76c-37.97,4.75-90.93,40.26-114.41,101.95c-5.47,14.37-8.13,29.66-8.23,45.03
			v0.48c0.75-2.2,1.56-4.19,2.41-5.56c0,0,6.13,83.34-28.85,117.18c-32.05,30.99-35.96,56.83-35.96,56.83
			c7.52-7.96,8.01-6.27,12.39-10.07c0.97-0.96,1.57-1.41,1.57-1.41c-0.58,0.53-1.09,1-1.57,1.41c-5.73,5.64-24.58,28.9-13.09,82.45
			c13.44,62.65,62.32,73.65,62.32,73.65c-8.68-7.87-9.3-9.34-11.02-15.59c0,0,79.45,30.9,61.12,62.35
			c-18.33,31.45-31.77,31.98-31.77,31.98s118.54,21.21,158.87,11.57c40.33-9.65,139.31,6.24,144.2-18.2c0,0-33,9.2-34.22-25.34
			c-1.22-34.54,96.54-50.04,102.65-152.27c0,0,2.44,16.88,0,31.87C625.06,464.29,640.5,431.35,629.5,368.64z"/>
		<g>
			<g>
				<path class="st2" d="M518.48,351c0,0,24.81-38.47,37.21-35.96c12.4,2.51,3.1,30.1,6.2,41.81c3.1,11.71-19.17,27.83-21.47,47.37
					c-2.3,19.53-1.65,38.83-11.95,39.6c-10.3,0.77-25.5,0-24.46-29.27C505.05,385.29,518.48,351,518.48,351z"/>
				<path class="st2" d="M289.66,351c0,0-24.81-38.47-37.21-35.96c-12.4,2.51-3.1,30.1-6.2,41.81
					c-3.1,11.71,19.17,27.83,21.47,47.37c2.3,19.53,1.65,38.83,11.95,39.6c10.3,0.77,25.5,0,24.46-29.27
					C303.1,385.29,289.66,351,289.66,351z"/>
			</g>
			<g>
				<linearGradient id="SVGID_1_" gradientUnits="userSpaceOnUse" x1="408.3816" y1="961.5604" x2="398.7873" y2="405.1093">
					<stop  offset="0" style="stop-color:#FFFFFF"/>
					<stop  offset="0.2413" style="stop-color:#FBFBFB"/>
					<stop  offset="0.4766" style="stop-color:#EFEFEF"/>
					<stop  offset="0.7096" style="stop-color:#DCDCDC"/>
					<stop  offset="0.9398" style="stop-color:#C0C0C0"/>
					<stop  offset="1" style="stop-color:#B8B8B8"/>
				</linearGradient>
				<path class="st3" d="M740.77,753.08c-17.07-25.47-38.97-40.12-115.78-56.33c-76.81-16.21-147.89-27.43-147.27-112.05
					c0.15-20.86,13.5-85.43,13.5-85.43l-85.32,13.87l-85.32-13.87c0,0,8.75,64.6,9.84,85.43c4.39,83.76-66.8,95.84-143.62,112.05
					C110,712.96,99.77,727.61,82.7,753.08c-17.07,25.47-28.42,64.84-28.42,64.84h703.26C757.53,817.92,757.84,778.54,740.77,753.08z
					"/>
				<path class="st2" d="M740.77,753.08c-17.07-25.47-38.97-40.12-115.78-56.33c-48.65-10.27-94.99-18.54-122.28-44.72
					c-1.66,20.1-5.17,39.71-12.53,57.87c-11,26-72.88,60-85.65,66.36c-9-4-21.04-14.72-29.04-20.72c-15-9-20.31-21.64-34.31-30.64
					c-28.24-17.07-34.05-44.49-33.01-73.2c-26.37,26.18-72.74,34.8-121.36,45.06C110,712.95,99.77,727.61,82.7,753.08
					c-17.07,25.47-28.42,64.84-28.42,64.84h703.26C757.53,817.92,757.84,778.54,740.77,753.08z"/>
				<g>
					<path class="st4" d="M333.47,817.92c0,0-42.12-143.45-40.86-157.07c0,0-31.77,16.01-86.28,29.6
						c-54.51,13.59-114.41,24.21-123.83,25.25s-14.64,13.59-16.73,27.19c-2.09,13.59-11.5,75.03-11.5,75.03H333.47z"/>
					<path class="st5" d="M342.81,722.09c-15.27-20.45-44.88-43.05-49.3-58.76c-31.31,55.5-61.32,136.49-48.45,154.6
						c23.08-22.19,57.36-34.63,75.85-45.43c13.49-7.88,83.62,3.76,83.62,3.76C378.33,758.32,364.64,751.31,342.81,722.09z"/>
					<path class="st2" d="M330.6,593.79c-1.37,12.55-5.06,69.31-5.06,69.31c7.92,49.33,29.34,72.96,78.99,113.15
						c-8.46-8.65-47.54-21.39-72.37-28.84c-12.31-3.69-25.57,1.22-32.49,12.05l-54.61,58.46c-10.73-17.65,34.25-143.87,52.76-178.54
						C311.83,623.92,323.82,590.8,330.6,593.79z"/>
				</g>
				<g>
					<path class="st4" d="M481.63,818.05c0,0,35.84-143.58,34.58-157.2c0,0,39.16,16.38,93.67,29.98
						c54.51,13.59,113.31,23.83,122.72,24.88c9.41,1.05,14.64,13.59,16.73,27.19c2.09,13.59,11.5,75.16,11.5,75.16H481.63z"/>
					<path class="st5" d="M466.25,722.09c15.27-20.45,44.88-43.05,49.3-58.76c31.31,55.5,61.32,136.49,48.45,154.6
						c-23.08-22.19-57.36-34.63-75.85-45.43c-13.49-7.88-83.62,3.76-83.62,3.76C430.73,758.32,444.42,751.31,466.25,722.09z"/>
					<path class="st2" d="M478.46,593.79c1.37,12.55,5.06,69.31,5.06,69.31c-7.92,49.33-29.34,72.96-78.99,113.15
						c8.46-8.65,47.54-21.39,72.37-28.84c12.31-3.69,25.57,1.22,32.49,12.05L564,817.92c10.73-17.65-34.25-143.87-52.76-178.54
						C497.23,623.92,485.24,590.8,478.46,593.79z"/>
				</g>
				<path class="st5" d="M419.96,817.92h-20.83l4.27-42.13l12.08,2.84c2.62,0.62,4.48,2.96,4.48,5.65V817.92z"/>
			</g>
			<path class="st2" d="M544.88,252.31c-7.28-98.31-140.8-117.04-140.8-117.04S270.55,154,263.27,252.31
				c-7.28,98.31,31.56,238.75,38.84,248.12c7.28,9.36,67.97,84.27,101.96,84.27c33.99,0,94.68-74.9,101.96-84.27
				C513.32,491.07,552.16,350.62,544.88,252.31z"/>
		</g>
		<path class="st1" d="M214.45,446.39c0,0,0-2.96,0.17-8.29C214.18,443.47,214.45,446.39,214.45,446.39z"/>
		<path class="st1" d="M417.31,129.77C233.6,116.49,216.26,386.91,214.62,438.1c1.68-20.34,13.62-76.04,89.56-143.54l-10.3,36.86
			c35.44-57.74,112.02-64.77,112.02-138.09c0,80.35,138.32,93.39,161.72,178.29C567.62,371.61,620.17,144.44,417.31,129.77z"/>
	</g>
</g>
</svg>
